<svg xmlns="http://www.w3.org/2000/svg" xmlns:xlink="http://www.w3.org/1999/xlink" viewBox="0 0 640 860">
  <defs>
    <style>
      .cls-1 {
        clip-path: url(#clip-Custom_Size_1);
      }

      .cls-2 {
        fill: #ff5353;
      }

      .cls-3 {
        fill: #ea474d;
      }
    </style>
    <clipPath id="clip-Custom_Size_1">
      <rect width="640" height="860"/>
    </clipPath>
  </defs>
  <g id="Custom_Size_1" data-name="Custom Size – 1" class="cls-1">
    <path id="Path_1" data-name="Path 1" class="cls-2" d="M1230.6,0s-24,117.2,6.7,178.6S1396,321.9,1396,321.9l45.3-167.3-152-160L1310.7,0l136,133.9L1486.6-5.4h32s-25.3,92-49.3,160-60,227-60,227l-22.6,225.7-8,149.3,30.6,117.7H1372s-22.6-22.3-28-109,28-308,28-308l14.7-103.4s-68.949-46.425-117.4-96c-1.374-1.406-10.56-13.04-12-14.6-48-52-62.6-101.9-85.3-127.3s-44-30.7-44-30.7l13.3-22.7s53.3,63.3,53.3,38S1153.3,0,1153.3,0h25.3l24,76.6L1210.7,0Z" transform="translate(-937 -6)"/>
    <path id="Path_2" data-name="Path 2" class="cls-3" d="M1230.6,0s-24,117.2,6.7,178.6S1372,290.7,1372,290.7l44-148L1361.3,108l17.4-8.4,55.9,16.4L1469.3-5.4h49.3s-25.3,92-49.3,160-45.3,220-45.3,220l52-28L1584,0h54.6L1596,142.7l53.3,26.6-10.7,17.3-51.6-8s-43,101.3-47,154.7,12,176,12,176l57.3,8L1596,542.6s-33.3-9.4-44,0-12,52-12,52L1496,840l-9.4,34.3H1424s54.6-202.3,62.6-305S1476,418.7,1476,418.7l-52.7,19.9-14,189.4L1424,770.7l10.6,32,84,71.6H1372s-22.6-22.3-28-109,28-308,28-308V346.6s-65.4-28-113.4-80S1194.7,141.4,1172,116s-44-30.7-44-30.7l13.3-22.7s37.3,40,37.3,14.7S1153.3,0,1153.3,0h25.3l16,44,8-44Z" transform="translate(-1107 -5)"/>
    <path id="Path_3" data-name="Path 3" class="cls-2" d="M1230.6,0s-24,117.2,6.7,178.6S1396,321.9,1396,321.9l45.3-167.3-152-160L1310.7,0l136,133.9L1486.6-5.4h32s-25.3,92-49.3,160S1416,385.9,1416,385.9l86.7-32L1540,211.3,1609.3,0h29.3L1596,142.7l53.3,26.6-10.7,17.3-51.6-8s-43,101.3-47,154.7,12,178,12,178l44,7.9v23.4s-33.3-9.4-44,0-12,52-12,52L1496,840l-9.4,34.3h-39.9s54.6-213.7,62.6-316.4-6.6-183.3-6.6-183.3l-93.4,36.6-22.6,196.1-8,149.3,30.6,117.7H1372s-22.6-22.3-28-109,28-308,28-308l14.7-103.4s-68.949-46.425-117.4-96c-1.374-1.406-10.56-13.04-12-14.6-48-52-62.6-101.9-85.3-127.3s-44-30.7-44-30.7l13.3-22.7s53.3,63.3,53.3,38S1153.3,0,1153.3,0h25.3l24,76.6L1210.7,0Z" transform="translate(1746.3 865.9) rotate(180)"/>
  </g>
</svg>
