<svg id="Layer_1" data-name="Layer 1" xmlns="http://www.w3.org/2000/svg" viewBox="0 0 407.69 113.6"><defs><style>.cls-1{fill:#ea474d;}.cls-2{fill:#ff5353;}.cls-3{fill:#fff;}</style></defs><title>The_Hearty_Project_Logo_Colored</title><rect class="cls-1" x="364.92" y="214" width="69.16" height="132" rx="34.58" ry="34.58" transform="translate(16.46 -423.69) rotate(45)"/><rect class="cls-2" x="320.76" y="214" width="69.16" height="132" rx="34.58" ry="34.58" transform="translate(-392.46 110.07) rotate(-45)"/><path class="cls-3" d="M520.16,254.85v52.8H507V284.13h-14.8v23.52H478.88v-52.8h13.28v22.88H507V254.85Z" transform="translate(-298.55 -223.2)"/><path class="cls-3" d="M561.12,299.09a7.92,7.92,0,0,1-2.16,5.6,13.63,13.63,0,0,1-5.56,3.52,20.87,20.87,0,0,1-7,1.2q-9.6,0-14.52-5.84t-4.92-16q0-10.48,5.32-16.4t15.4-5.92a18.3,18.3,0,0,1,10.72,3,10,10,0,0,1,4.24,8.72q0,7.12-5,9.84t-13.76,2.72a28.76,28.76,0,0,1-4.24-.24,19,19,0,0,0,2.2,9q2,3.28,6.6,3.28a12.33,12.33,0,0,0,6.28-1.64,10.89,10.89,0,0,0,4.36-4.68Q561.12,296.13,561.12,299.09Zm-20-24.44a37.89,37.89,0,0,0-1.56,10.92h1.6q5,.08,7.64-1.84t2.6-6.56A9.85,9.85,0,0,0,550.2,272a4.06,4.06,0,0,0-3.72-2.08Q542.64,270,541.16,274.65Z" transform="translate(-298.55 -223.2)"/><path class="cls-3" d="M587.6,308.13a15.82,15.82,0,0,1-6.48,1.28,16.77,16.77,0,0,1-10.4-3.2,10.49,10.49,0,0,1-4.24-8.88q0-7.52,7-10.24T591,284.37v-7a12.77,12.77,0,0,0-1-5.76q-1-2-4.08-2a5.82,5.82,0,0,0-4.48,1.72,6.6,6.6,0,0,0-1.6,4.68,22.87,22.87,0,0,0,.48,3.84,4.19,4.19,0,0,1-1.68.6,11.86,11.86,0,0,1-2.08.2,9.06,9.06,0,0,1-5.44-1.56,5.23,5.23,0,0,1-2.16-4.52q0-4.56,5.16-7a29.12,29.12,0,0,1,12.36-2.4q8.64,0,12.72,3.44t4.08,11.6v19.36a12.39,12.39,0,0,0,.56,3.92,7.08,7.08,0,0,0,1.92,3,5.5,5.5,0,0,1-2.6,1.72,10.5,10.5,0,0,1-3.48.6,9.25,9.25,0,0,1-5-1.24,6.21,6.21,0,0,1-2.72-3.56A8.69,8.69,0,0,1,587.6,308.13Zm1.88-6.8a12.28,12.28,0,0,0,1.48-6.24v-6.72q-11.84,0-11.84,8.64a7.89,7.89,0,0,0,1.48,5,5.08,5.08,0,0,0,4.28,1.92A4.94,4.94,0,0,0,589.48,301.33Z" transform="translate(-298.55 -223.2)"/><path class="cls-3" d="M625.12,275.37a43,43,0,0,0-.8,9.16v23.12H612.08v-40.8l10-1,.56,7.2a11.57,11.57,0,0,1,4.16-5.76,11.31,11.31,0,0,1,6.8-2.08,10,10,0,0,1,7.24,2.6,9.41,9.41,0,0,1,2.68,7.08,7.8,7.8,0,0,1-2,5.76,7.68,7.68,0,0,1-5.68,2,10.8,10.8,0,0,1-2.08-.24,4.68,4.68,0,0,1-1.76-.64,13.82,13.82,0,0,0,.56-4.16q0-5.84-3.76-5.84Q625.92,271.81,625.12,275.37Z" transform="translate(-298.55 -223.2)"/><path class="cls-3" d="M643.36,270.45V268a39.81,39.81,0,0,0,7.76-4,32.05,32.05,0,0,0,6.48-5.44H661v8.32h7.36v3.6H661v28.48a6.61,6.61,0,0,0,.92,3.8,4.49,4.49,0,0,0,3,1.72,6.12,6.12,0,0,1-3,3.24,10,10,0,0,1-4.8,1.16q-4.16,0-6.28-2.24t-2.12-6.48V270.45Z" transform="translate(-298.55 -223.2)"/><path class="cls-3" d="M706.23,266.85l-19,56.24L675,322l8.64-18.72h-5l-10.16-36.48h12.8l6.88,30.72,7.44-30.72Z" transform="translate(-298.55 -223.2)"/><path class="cls-3" d="M489.19,236.83h-4.32v12.92h-2.5V236.83h-4.31v-2.12h11.13Z" transform="translate(-298.55 -223.2)"/><path class="cls-3" d="M504.54,249.75H502v-6.52H495v6.52h-2.5v-15H495V241H502v-6.32h2.51Z" transform="translate(-298.55 -223.2)"/><path class="cls-3" d="M517.77,249.75h-8.44v-15h8.11v2.12h-5.61v4.26H517v2.11h-5.17v4.45h5.95Z" transform="translate(-298.55 -223.2)"/><path class="cls-3" d="M486.24,325.33v5.45h-2.49v-15h4.56a6,6,0,0,1,4,1.21,4.2,4.2,0,0,1,1.43,3.4,4.7,4.7,0,0,1-1.49,3.59,5.65,5.65,0,0,1-4,1.39Zm0-7.53v5.5h1.61a3.57,3.57,0,0,0,2.44-.75,2.66,2.66,0,0,0,.84-2.1q0-2.65-3.08-2.65Z" transform="translate(-298.55 -223.2)"/><path class="cls-3" d="M521.35,330.78h-2.92l-2.4-4a8.54,8.54,0,0,0-.63-.95,3.85,3.85,0,0,0-.63-.64,2.12,2.12,0,0,0-.7-.37,2.92,2.92,0,0,0-.85-.12h-1v6.1h-2.49v-15h4.95a7.15,7.15,0,0,1,2,.25,4.54,4.54,0,0,1,1.55.76,3.55,3.55,0,0,1,1,1.27,4,4,0,0,1,.37,1.78,4.36,4.36,0,0,1-.24,1.46,3.79,3.79,0,0,1-.67,1.18,4.1,4.1,0,0,1-1,.89,5.27,5.27,0,0,1-1.38.57v0a4,4,0,0,1,.71.51c.2.19.39.38.58.57a6.89,6.89,0,0,1,.54.67q.27.37.59.87Zm-9.13-13v4.89h2.08a3.07,3.07,0,0,0,1.06-.18,2.43,2.43,0,0,0,.84-.51,2.33,2.33,0,0,0,.56-.82,2.8,2.8,0,0,0,.2-1.08,2.14,2.14,0,0,0-.68-1.69,2.85,2.85,0,0,0-2-.61Z" transform="translate(-298.55 -223.2)"/><path class="cls-3" d="M542.51,331a6.76,6.76,0,0,1-5.21-2.11,7.74,7.74,0,0,1-2-5.48,8.2,8.2,0,0,1,2-5.79,7,7,0,0,1,5.41-2.16,6.61,6.61,0,0,1,5.1,2.1,7.77,7.77,0,0,1,1.93,5.48,8.23,8.23,0,0,1-2,5.82A6.87,6.87,0,0,1,542.51,331Zm.12-13.35a4.19,4.19,0,0,0-3.36,1.54,7.05,7.05,0,0,0,0,8.1,4.06,4.06,0,0,0,3.29,1.53,4.25,4.25,0,0,0,3.41-1.46,6.08,6.08,0,0,0,1.25-4.08,6.37,6.37,0,0,0-1.21-4.16A4.1,4.1,0,0,0,542.63,317.68Z" transform="translate(-298.55 -223.2)"/><path class="cls-3" d="M570.75,325.39a6,6,0,0,1-1.32,4.16,4.48,4.48,0,0,1-3.52,1.48,5,5,0,0,1-1.69-.24v-2.35a2.68,2.68,0,0,0,1.54.41q2.5,0,2.5-3.86v-9.25h2.5Z" transform="translate(-298.55 -223.2)"/><path class="cls-3" d="M596.19,330.78h-8.44v-15h8.11v2.12h-5.61v4.26h5.17v2.11h-5.17v4.45h5.95Z" transform="translate(-298.55 -223.2)"/><path class="cls-3" d="M622.78,330.15a9.11,9.11,0,0,1-4.23.88,6.91,6.91,0,0,1-5.24-2.07,7.53,7.53,0,0,1-2-5.42,7.9,7.9,0,0,1,2.22-5.83,7.59,7.59,0,0,1,5.6-2.22,9.2,9.2,0,0,1,3.62.62v2.47a6.46,6.46,0,0,0-3.36-.9,5.26,5.26,0,0,0-4,1.56,5.74,5.74,0,0,0-1.52,4.17,5.47,5.47,0,0,0,1.42,4,4.93,4.93,0,0,0,3.72,1.47,6.67,6.67,0,0,0,3.69-1Z" transform="translate(-298.55 -223.2)"/><path class="cls-3" d="M648.7,317.86h-4.32v12.92h-2.5V317.86h-4.31v-2.12H648.7Z" transform="translate(-298.55 -223.2)"/></svg>